<svg width="367" height="380" viewBox="0 0 367 380" fill="none" xmlns="http://www.w3.org/2000/svg">
<path d="M237.599 344.403C235.638 349.273 233.744 354.684 232.391 359.621C231.174 364.288 230.43 368.481 230.7 371.525C231.038 374.974 233.744 377.747 237.193 378.018C251.396 379.37 287.513 381.805 288.46 377.815C290.015 371.119 280.885 365.708 274.46 362.462C271.416 360.974 269.116 358.471 267.764 355.495C267.02 353.872 266.546 352.046 266.479 350.22L237.599 344.403Z" fill="#FC6054"/>
<path d="M237.599 344.403C235.638 349.273 233.744 354.684 232.391 359.621C243.01 366.384 259.039 360.027 267.696 355.563C266.952 353.94 266.479 352.114 266.411 350.288L237.599 344.403Z" fill="#E64B38"/>
<path d="M265.261 376.056C255.725 376.056 243.957 375.244 233.811 372.201C233.473 372.065 233.27 371.727 233.338 371.389C233.473 371.051 233.811 370.848 234.15 370.916C255.116 377.273 283.32 373.756 283.59 373.756C283.996 373.689 284.267 373.959 284.334 374.365C284.402 374.703 284.131 375.041 283.726 375.109C283.726 375.109 275.812 376.056 265.261 376.056ZM270.131 362.799C269.928 362.799 269.725 362.732 269.59 362.529C269.387 362.258 269.455 361.785 269.725 361.582L272.769 359.418C273.039 359.215 273.513 359.283 273.716 359.553C273.919 359.824 273.851 360.297 273.58 360.5C270.469 362.664 270.537 362.799 270.131 362.799ZM272.16 364.829C271.957 364.558 272.025 364.085 272.295 363.882L275.339 361.717C275.609 361.514 276.083 361.582 276.286 361.853C276.489 362.123 276.421 362.597 276.15 362.799L273.107 364.964C272.769 365.167 272.363 365.099 272.16 364.829ZM267.02 360.162C266.817 359.891 266.885 359.418 267.155 359.215L270.199 357.051C270.469 356.848 270.943 356.915 271.146 357.186C271.348 357.456 271.281 357.93 271.01 358.133L267.967 360.297C267.696 360.568 267.223 360.5 267.02 360.162Z" fill="#112544"/>
<path d="M53.634 328.374C49.8464 332.026 45.9236 336.22 42.6772 340.142C39.6337 343.862 37.2665 347.447 36.3196 350.288C35.1698 353.602 36.5901 357.186 39.566 358.877C52.0107 365.843 84.0694 382.752 86.5042 379.505C90.6299 374.027 84.4752 365.302 79.9437 359.824C77.7794 357.254 76.6296 354.007 76.6296 350.761C76.6296 348.935 76.9001 347.109 77.5765 345.418L53.634 328.374Z" fill="#FC6054"/>
<path d="M53.6339 328.374C49.8464 332.026 45.9236 336.22 42.6771 340.142C49.6434 350.626 66.8902 351.302 76.6295 350.761C76.6295 348.935 76.9 347.109 77.5764 345.418L53.6339 328.374Z" fill="#E64B38"/>
<path d="M83.4606 375.176C83.1901 375.109 55.7306 366.722 38.8896 352.248C38.6191 351.978 38.5515 351.572 38.822 351.301C39.0925 351.031 39.4984 350.963 39.7689 351.234C56.4069 365.505 83.5282 373.824 83.7988 373.891C84.1369 374.027 84.3398 374.365 84.2722 374.703C84.1369 375.109 83.7988 375.312 83.4606 375.176ZM75.4798 357.93C75.4121 357.591 75.615 357.186 76.0208 357.118L79.6731 356.374C80.0113 356.306 80.4171 356.509 80.4847 356.915C80.5523 357.253 80.3494 357.659 79.9436 357.727L76.2914 358.471C75.9532 358.471 75.5474 358.268 75.4798 357.93ZM76.9001 361.041C76.8324 360.703 77.0353 360.297 77.4412 360.229L81.0934 359.485C81.4316 359.418 81.8374 359.62 81.905 360.026C81.9726 360.432 81.7697 360.77 81.3639 360.838L77.7117 361.582C77.3059 361.65 76.9677 361.447 76.9001 361.041ZM74.1271 354.751C74.0594 354.413 74.2623 354.007 74.6681 353.939L78.3204 353.195C78.6586 353.128 79.0644 353.33 79.132 353.736C79.1996 354.074 78.9967 354.48 78.5909 354.548L74.9387 355.292C74.5329 355.36 74.1947 355.089 74.1271 354.751ZM137.027 19.2853H130.196C129.79 19.2853 129.519 19.0148 129.519 18.609C129.519 18.2032 129.79 17.9326 130.196 17.9326H137.027C137.433 17.9326 137.703 18.2032 137.703 18.609C137.703 19.0148 137.365 19.2853 137.027 19.2853Z" fill="#112544"/>
<path d="M273.58 340.954C272.431 347.041 271.619 350.761 271.619 350.761C269.387 354.684 227.521 351.167 227.521 347.65C228.807 315.794 239.696 287.929 226.98 267.841C218.661 254.653 201.55 254.45 184.574 240.517C178.96 251.271 164.757 278.189 157.182 287.658C143.114 305.175 87.451 348.055 87.451 348.055C80.6876 354.075 37.8751 336.625 43.0153 329.388C43.0153 329.388 101.925 279.136 110.514 255.667C123.906 219.077 143.182 189.521 163.269 173.897L201.009 179.714L216.429 182.081C216.429 182.081 219.27 184.245 223.734 187.83C239.222 200.275 274.324 230.034 280.006 247.078C286.566 266.894 277.774 319.108 273.58 340.954Z" fill="#8D95FF"/>
<path d="M273.58 340.954C272.431 347.041 271.619 350.761 271.619 350.761C269.387 354.684 227.521 351.167 227.521 347.65C228.807 315.794 239.696 287.929 226.98 267.841C218.661 254.653 201.55 254.45 184.574 240.517C187.753 244.169 207.637 162.873 221.502 172.68C225.966 175.453 225.695 183.434 223.802 187.965C223.666 188.371 223.463 188.709 223.26 189.047C220.893 193.241 216.903 196.284 213.115 199.193C209.26 202.169 205.405 205.28 203.308 209.676C200.265 216.034 201.888 223.947 205.811 229.831C209.734 235.715 215.55 240.044 221.502 243.899C227.454 247.754 233.541 251.406 238.546 256.479C245.377 263.445 249.57 272.981 250.044 282.721C250.517 292.257 247.609 301.591 247.068 311.127C246.527 320.664 249.164 331.417 257.348 336.219C261.744 338.79 266.952 339.263 271.89 340.48C272.431 340.616 272.972 340.751 273.58 340.954Z" fill="#757BFF"/>
<path d="M164.081 209.744C164.081 209.338 164.351 209.067 164.757 209.067C175.037 208.662 178.081 202.439 176.255 196.42C176.119 196.082 176.322 195.676 176.728 195.608C177.066 195.473 177.472 195.676 177.54 196.082C179.569 202.98 175.917 210.014 164.825 210.42C164.351 210.42 164.081 210.15 164.081 209.744Z" fill="#112544"/>
<path d="M162.796 202.981C166.042 204.807 171.859 211.029 171.047 215.222C170.303 218.942 164.419 212.449 164.419 212.449C164.419 212.449 167.462 224.488 165.163 225.773C163.878 226.517 161.037 221.783 160.496 216.102C160.496 216.102 161.916 227.058 159.481 227.599C156.506 228.276 156.573 217.454 156.573 217.454C156.573 217.454 157.52 227.938 154.747 228.14C152.042 228.343 153.327 215.899 153.327 215.899C153.327 215.899 152.989 225.638 150.621 225.367C148.66 225.097 148.863 215.087 149.133 211.638C149.336 207.647 151.027 196.42 162.796 202.981Z" fill="#FCBBA4"/>
<path d="M176.863 254.991C176.525 254.788 176.458 254.382 176.593 254.044C197.154 218.807 204.255 184.651 204.323 184.313C204.391 183.975 204.729 183.705 205.135 183.772C205.473 183.84 205.743 184.178 205.676 184.584C205.608 184.922 198.439 219.28 177.743 254.72C177.607 255.059 177.202 255.194 176.863 254.991Z" fill="#112544"/>
<path d="M218.864 260.469C215.212 257.967 210.951 256.005 206.352 253.909C199.521 250.797 191.811 247.28 184.168 240.99C183.897 240.788 183.83 240.314 184.1 240.044C184.303 239.773 184.777 239.705 185.047 239.976C192.555 246.131 200.197 249.648 206.961 252.691C211.56 254.788 215.956 256.817 219.676 259.319C220.014 259.522 220.082 259.928 219.879 260.266C219.608 260.604 219.202 260.672 218.864 260.469Z" fill="#112544"/>
<path d="M158.399 178.09C158.399 178.09 159.346 149.955 168.206 136.022C168.206 136.022 160.969 86.1755 206.961 90.1659C240.71 93.0742 256.942 111.132 256.942 111.132C256.942 111.132 246.459 192.496 235.638 197.637C223.937 203.183 206.149 175.182 186.062 182.757C165.839 190.332 158.399 178.09 158.399 178.09Z" fill="#66D3D8"/>
<path d="M327.147 139.607C302.325 175.859 277.03 198.99 254.102 192.7C251.938 192.091 249.841 191.144 247.947 189.792C224.005 173.695 217.782 108.022 217.782 108.022L232.053 95.8477C273.986 107.751 271.078 154.284 271.078 154.284C274.189 149.549 277.977 145.221 281.967 141.365C295.562 128.244 311.659 120.737 311.659 120.737L327.147 139.607Z" fill="#66D3D8"/>
<path d="M327.147 139.607C302.325 175.859 277.03 198.99 254.102 192.7C251.937 192.091 249.841 191.144 247.947 189.792C249.706 188.304 252.005 187.222 254.102 186.41C260.73 183.84 267.764 182.217 274.257 179.376C280.75 176.468 286.972 172.139 290.151 165.782C293.33 159.424 292.653 150.767 287.243 146.168C285.484 144.68 283.658 143.936 281.967 141.366C295.562 128.245 311.658 120.737 311.658 120.737L327.147 139.607Z" fill="#47B6C3"/>
<path d="M351.495 178.902C351.157 179.24 350.751 179.443 350.278 179.511C317.272 183.366 289.474 148.67 270.943 91.5187C270.605 90.4366 271.281 89.2868 272.431 89.0839C291.774 85.6345 306.924 71.7695 311.185 67.5086C311.861 66.8322 312.944 66.7646 313.755 67.3733C324.982 76.5039 338.171 83.7408 353.186 89.1515C353.727 89.3544 354.133 89.7602 354.336 90.2337C367.524 125.065 371.718 156.38 351.495 178.902Z" fill="white"/>
<path d="M233.406 61.1517L233.541 61.0841C233.811 60.9488 234.014 61.287 233.744 61.4222C233.676 61.4222 233.676 61.4899 233.609 61.4899C233.338 61.6252 233.135 61.287 233.406 61.1517ZM227.86 62.3691C227.589 62.3691 227.319 62.3015 227.048 62.3015C226.913 62.3015 226.845 62.0986 226.913 61.9633C226.98 61.8957 227.048 61.8957 227.116 61.8957C227.386 61.8957 227.657 61.9633 227.927 61.9633C228.13 61.9633 228.13 62.3691 227.86 62.3691Z" fill="#FF987A"/>
<path d="M227.86 62.3687C227.724 62.3687 227.657 62.2334 227.657 62.1658C227.657 62.0305 227.792 61.9629 227.86 61.9629C228.604 62.0305 229.009 62.0305 229.145 62.0305C229.415 62.0305 229.415 62.4363 229.145 62.4363C228.807 62.4363 228.333 62.4363 227.86 62.3687Z" fill="#FF987A"/>
<path d="M229.348 62.4361C229.077 62.4361 229.077 62.0303 229.348 62.0303C229.551 62.0303 229.821 62.0303 230.024 62.0303C230.159 62.0303 230.227 62.0979 230.227 62.2332C230.227 62.3684 230.159 62.4361 230.024 62.4361C229.821 62.3684 229.551 62.4361 229.348 62.4361Z" fill="#FF987A"/>
<path d="M207.299 93.3449C208.449 94.9681 210.072 97.2001 212.236 99.0262C218.256 104.234 227.657 101.529 230.024 93.9536L232.797 85.0935C232.797 85.0935 240.237 86.852 242.672 79.7505C243.348 77.7891 243.213 74.2721 242.536 70.2817C242.333 68.7937 241.995 67.2381 241.657 65.6149C240.913 61.9627 239.899 58.1752 238.884 54.9287C236.787 56.0109 233.676 56.4167 229.145 55.7403C229.145 55.7403 226.439 61.4892 218.391 57.7693C218.391 57.7693 222.719 66.3589 214.806 69.0642C213.386 69.5377 211.83 69.1995 210.275 68.3879C210.681 70.7551 211.56 71.702 213.251 73.5957L206.69 88.34C206.081 89.9632 206.284 91.857 207.299 93.3449Z" fill="#FCBBA4"/>
<path d="M211.763 99.5673C209.531 97.606 207.772 95.3064 206.69 93.7508C205.946 92.6687 205.608 91.3836 205.676 90.0986C205.676 89.6928 206.014 89.4222 206.42 89.4898C206.825 89.4898 207.096 89.828 207.028 90.2338C206.961 91.2483 207.231 92.1952 207.84 93.0068C208.854 94.4948 210.545 96.7267 212.642 98.5528C218.12 103.287 226.575 101.123 229.145 94.4948C229.28 94.1566 229.686 93.9537 230.024 94.089C230.362 94.2242 230.565 94.6301 230.43 94.9682C227.521 102.408 218.053 104.978 211.763 99.5673Z" fill="#112544"/>
<path d="M206.352 90.8427C205.946 90.8427 205.676 90.5045 205.743 90.0987C205.811 89.3547 205.946 88.6784 206.284 88.0021C206.42 87.6639 206.825 87.5286 207.164 87.6639C207.502 87.7992 207.637 88.205 207.502 88.5431C207.299 89.0842 207.164 89.6253 207.096 90.1663C207.028 90.5722 206.758 90.8427 206.352 90.8427ZM242.063 42.1461C243.821 46.4747 245.039 58.243 229.212 55.7406C229.212 55.7406 226.507 61.4895 218.458 57.7696C218.458 57.7696 222.787 66.3591 214.874 69.0645C207.028 71.7022 193.907 49.7887 209.125 47.2863C209.125 47.2863 208.043 42.4166 213.454 44.0398C213.454 44.0398 215.212 33.8271 225.357 39.7113C225.357 39.7113 237.058 29.8367 242.063 42.1461Z" fill="#112544"/>
<path d="M240.643 60.8812C240.101 58.8522 239.56 56.8232 239.019 54.9294C241.86 53.4415 242.942 50.8037 243.145 48.166C244.701 50.8037 247.609 57.0937 240.643 60.8812ZM229.618 65.7509C229.821 66.5625 230.43 67.0359 231.039 66.9007C231.647 66.7654 231.918 66.0214 231.715 65.2098C231.512 64.4659 230.903 63.9248 230.295 64.06C229.753 64.2629 229.415 65.0069 229.618 65.7509ZM238.884 64.06C239.087 64.8717 239.696 65.3451 240.304 65.2098C240.913 65.0746 241.184 64.3306 240.981 63.519C240.778 62.775 240.169 62.2339 239.56 62.3692C238.952 62.5721 238.681 63.3161 238.884 64.06ZM226.98 61.6929C226.439 62.031 226.642 62.4368 227.251 62.5045C228.942 62.8426 230.7 62.3692 232.053 61.3547C232.526 61.0165 232.324 60.5431 231.782 60.4078C231.309 60.2725 230.7 60.4078 230.295 60.4754C229.145 60.746 227.995 61.1518 226.98 61.6929Z" fill="#112544"/>
<path d="M236.246 59.4611C235.773 59.7316 235.84 60.1374 236.517 60.2727C238.208 60.6109 239.966 60.1374 241.319 59.1229C241.792 58.7847 241.589 58.3113 241.048 58.176C240.575 58.0408 239.966 58.176 239.56 58.2437C238.478 58.4466 237.328 58.8524 236.246 59.4611Z" fill="#112544"/>
<path d="M234.894 77.3843C234.623 77.1814 234.555 76.7079 234.758 76.4374C234.961 76.1668 235.435 76.0992 235.705 76.3021C237.937 77.993 239.29 76.5726 239.425 76.3697C239.696 76.0992 240.101 76.0316 240.372 76.3021C240.643 76.5726 240.71 76.9785 240.44 77.249C239.29 78.6693 237.058 79.0751 234.894 77.3843Z" fill="#F97A5D"/>
<path d="M232.797 85.0936C232.797 85.0936 226.98 84.0115 221.84 79.5476C221.502 79.2095 220.961 79.6153 221.164 80.0887C222.314 82.8617 225.222 87.9343 231.377 89.6928L232.797 85.0936Z" fill="#E2805D"/>
<path d="M207.502 68.9976C208.381 72.3793 211.357 74.7465 214.062 74.273C216.835 73.7996 218.323 70.6208 217.444 67.2391C216.565 63.8574 213.589 61.4902 210.883 61.9636C208.178 62.3694 206.623 65.5482 207.502 68.9976Z" fill="#FCBBA4"/>
<path d="M212.439 69.5381L211.763 68.253C211.56 67.9148 211.695 67.509 212.033 67.3061C212.371 67.1032 212.777 67.2385 212.98 67.5767L213.656 68.8617C213.859 69.1999 213.724 69.6057 213.386 69.8086C213.048 69.9439 212.642 69.8086 212.439 69.5381ZM235.773 70.8231C235.773 70.4173 236.043 70.1468 236.382 70.0791C236.449 70.0791 237.87 69.9439 237.937 69.8762C238.208 69.1999 236.584 66.6298 235.029 64.8037C234.758 64.5331 234.826 64.0597 235.097 63.8568C235.367 63.5863 235.84 63.6539 236.043 63.9244C236.923 65.0066 239.831 68.5912 239.155 70.3497C239.019 70.6202 238.749 71.1613 237.937 71.2966C237.396 71.3642 236.923 71.4318 236.449 71.4995C236.111 71.4995 235.773 71.1613 235.773 70.8231Z" fill="#F97A5D"/>
<path d="M270.266 91.7223C269.793 90.2343 270.74 88.6787 272.295 88.4082C291.436 84.9589 306.518 71.1615 310.644 67.0358C311.591 66.0889 313.079 66.0213 314.093 66.9005C325.05 75.8282 338.239 83.1327 353.321 88.5435C354.065 88.814 354.606 89.3551 354.877 90.0314C362.249 109.442 365.969 125.472 366.104 139.201C366.307 155.434 361.64 168.622 351.968 179.376C351.563 179.85 350.954 180.12 350.345 180.188C308.953 185.057 283.117 131.356 270.266 91.7223ZM311.591 67.9827C307.33 72.176 292.045 86.2439 272.498 89.7609C271.754 89.8961 271.281 90.6401 271.551 91.3165C284.199 130.341 309.629 183.569 350.142 178.835C350.616 178.767 350.886 178.497 350.954 178.429C368.539 158.815 369.35 131.694 353.592 90.4372C353.456 90.099 353.186 89.8285 352.848 89.6932C337.63 84.2149 324.306 76.8427 313.214 67.8474C312.741 67.5092 312.064 67.5092 311.591 67.9827Z" fill="#112544"/>
<path d="M155.153 31.46V150.564C155.153 158.004 149.134 164.091 141.626 164.091H14.2032C6.76347 164.091 0.676392 158.071 0.676392 150.564V31.46H155.153Z" fill="white"/>
<path d="M154.274 105.113C154.679 102.273 154.95 99.4998 155.153 96.6592V150.564C155.153 158.003 149.133 164.09 141.626 164.09H14.2031C10.6862 164.09 7.43971 162.738 5.07251 160.506C35.7784 156.989 67.296 165.578 97.9343 160.573C113.964 157.936 129.925 151.172 140.273 138.931C148.322 129.462 152.583 117.288 154.274 105.113Z" fill="#E1E5FF"/>
<path d="M155.153 31.4602V20.2329C155.153 12.7931 149.134 6.70605 141.626 6.70605H14.2032C6.76347 6.70605 0.676392 12.7255 0.676392 20.2329V31.4602H155.153Z" fill="#FFC25E"/>
<path d="M155.153 20.2334V31.4607H0.743896V26.9968H143.655C147.578 26.9968 150.757 23.818 150.757 19.8952V15.7019C150.757 13.1318 150.013 10.697 148.795 8.66797C152.583 11.1028 155.153 15.3638 155.153 20.2334Z" fill="#EFA130"/>
<path d="M141.626 164.767H14.2032C6.35762 164.767 0 158.409 0 150.563V31.4595C0 31.0537 0.270537 30.7832 0.676342 30.7832H155.085C155.491 30.7832 155.762 31.0537 155.762 31.4595V150.563C155.829 158.409 149.472 164.767 141.626 164.767ZM1.42032 32.1359V150.563C1.42032 157.665 7.16923 163.414 14.2708 163.414H141.694C148.795 163.414 154.544 157.665 154.544 150.563V32.1359H1.42032Z" fill="#112544"/>
<path d="M105.509 71.4988C105.509 86.7165 93.1999 99.0259 77.9822 99.0259C62.7645 99.0259 50.4551 86.7165 50.4551 71.4988C50.4551 56.2811 62.7645 43.9717 77.9822 43.9717C93.1323 43.9717 105.509 56.2811 105.509 71.4988Z" fill="#E1E5FF"/>
<path d="M105.509 71.4998C105.509 86.7175 93.2 99.0269 77.9823 99.0269C70.4073 99.0269 63.5086 95.9834 58.5037 90.9785C62.6294 93.4809 67.499 94.9013 72.6392 94.9013C87.8569 94.9013 100.166 82.5918 100.166 67.3742C100.166 59.7315 97.0552 52.8328 92.0502 47.8955C100.099 52.6975 105.509 61.4223 105.509 71.4998Z" fill="#CCD2FF"/>
<path d="M120.998 114.65V125.336C120.998 126.892 119.712 128.177 118.157 128.177H37.7398C36.1842 128.177 34.8992 126.892 34.8992 125.336V114.65C34.8992 113.095 36.1842 111.81 37.7398 111.81H118.089C119.712 111.81 120.998 113.095 120.998 114.65Z" fill="#E1E5FF"/>
<path d="M120.998 114.65V125.336C120.998 126.96 119.712 128.177 118.157 128.177H37.7398C36.1842 128.177 34.8992 126.892 34.8992 125.336C35.0344 125.336 35.1021 125.336 35.2373 125.336H115.587C117.142 125.336 118.427 124.051 118.427 122.496V111.81C119.915 112.012 120.998 113.23 120.998 114.65Z" fill="#CCD2FF"/>
<path d="M155.153 32.1361H0.743847C0.338042 32.1361 0.0675049 31.8656 0.0675049 31.4598V20.2325C0.0675049 12.3869 6.42512 6.0293 14.2707 6.0293H141.694C149.539 6.0293 155.897 12.3869 155.897 20.2325V31.4598C155.829 31.7979 155.559 32.1361 155.153 32.1361ZM1.42019 30.7834H154.476V20.2325C154.476 13.1309 148.728 7.38198 141.626 7.38198H14.2031C7.10147 7.38198 1.35256 13.1309 1.35256 20.2325V30.7834H1.42019Z" fill="#112544"/>
<path d="M13.5945 23.4792C15.3874 23.4792 16.8409 22.0257 16.8409 20.2328C16.8409 18.4398 15.3874 16.9863 13.5945 16.9863C11.8015 16.9863 10.348 18.4398 10.348 20.2328C10.348 22.0257 11.8015 23.4792 13.5945 23.4792Z" fill="white"/>
<path d="M25.498 23.4792C27.291 23.4792 28.7445 22.0257 28.7445 20.2328C28.7445 18.4398 27.291 16.9863 25.498 16.9863C23.7051 16.9863 22.2516 18.4398 22.2516 20.2328C22.2516 22.0257 23.7051 23.4792 25.498 23.4792Z" fill="white"/>
<path d="M37.4017 23.4792C39.1947 23.4792 40.6482 22.0257 40.6482 20.2328C40.6482 18.4398 39.1947 16.9863 37.4017 16.9863C35.6088 16.9863 34.1553 18.4398 34.1553 20.2328C34.1553 22.0257 35.6088 23.4792 37.4017 23.4792Z" fill="white"/>
<path d="M16.8409 20.233C16.8409 22.0591 15.3529 23.4794 13.5944 23.4794C12.2418 23.4794 11.092 22.6678 10.6185 21.518C13.2563 22.6678 16.0293 19.8948 14.8795 17.1895C16.0293 17.7305 16.8409 18.8803 16.8409 20.233ZM28.7445 20.233C28.7445 22.0591 27.2565 23.4794 25.4981 23.4794C24.1454 23.4794 22.9956 22.6678 22.5222 21.518C25.2952 22.6678 27.9329 19.8272 26.7831 17.1895C27.9329 17.7305 28.7445 18.8803 28.7445 20.233ZM40.6481 20.233C40.6481 22.0591 39.1602 23.4794 37.4017 23.4794C36.049 23.4794 34.8992 22.6678 34.4258 21.518C37.0635 22.6678 39.9042 19.8948 38.6867 17.1895C39.8365 17.7305 40.6481 18.8803 40.6481 20.233Z" fill="#E1E5FF"/>
<path d="M13.5945 24.2235C11.4302 24.2235 9.67175 22.465 9.67175 20.3007C9.67175 18.1364 11.4302 16.3779 13.5945 16.3779C15.7588 16.3779 17.5173 18.1364 17.5173 20.3007C17.5173 22.465 15.7588 24.2235 13.5945 24.2235ZM13.5945 17.663C12.1742 17.663 11.0244 18.8128 11.0244 20.2331C11.0244 21.6534 12.1742 22.8032 13.5945 22.8032C15.0149 22.8032 16.1646 21.6534 16.1646 20.2331C16.1646 18.8128 15.0149 17.663 13.5945 17.663ZM25.4982 24.2235C23.3339 24.2235 21.5754 22.465 21.5754 20.3007C21.5754 18.1364 23.3339 16.3779 25.4982 16.3779C27.6625 16.3779 29.4209 18.1364 29.4209 20.3007C29.4209 22.465 27.6625 24.2235 25.4982 24.2235ZM25.4982 17.663C24.0778 17.663 22.9281 18.8128 22.9281 20.2331C22.9281 21.6534 24.0778 22.8032 25.4982 22.8032C26.9185 22.8032 28.0683 21.6534 28.0683 20.2331C28.0683 18.8128 26.9185 17.663 25.4982 17.663ZM37.4018 24.2235C35.2375 24.2235 33.479 22.465 33.479 20.3007C33.479 18.1364 35.2375 16.3779 37.4018 16.3779C39.5661 16.3779 41.3246 18.1364 41.3246 20.3007C41.3246 22.465 39.5661 24.2235 37.4018 24.2235ZM37.4018 17.663C35.9815 17.663 34.8317 18.8128 34.8317 20.2331C34.8317 21.6534 35.9815 22.8032 37.4018 22.8032C38.8221 22.8032 39.9719 21.6534 39.9719 20.2331C39.9719 18.8128 38.8221 17.663 37.4018 17.663Z" fill="#112544"/>
<path d="M96.9874 141.163V151.849C96.9874 153.405 95.7023 154.69 94.1467 154.69H61.7499C60.1944 154.69 58.9093 153.405 58.9093 151.849V141.163C58.9093 139.607 60.1944 138.322 61.7499 138.322H94.1467C95.7023 138.322 96.9874 139.607 96.9874 141.163Z" fill="#FC6054"/>
<path d="M96.9874 141.163V151.849C96.9874 153.472 95.7023 154.69 94.1467 154.69H61.7499C60.1944 154.69 58.9093 153.405 58.9093 151.849H91.3061C92.8617 151.849 94.1467 150.564 94.1467 149.008V138.322C95.77 138.322 96.9874 139.607 96.9874 141.163Z" fill="#E64B38"/>
<path d="M118.089 128.921H37.7398C35.7784 128.921 34.2228 127.298 34.2228 125.404V114.718C34.2228 112.757 35.846 111.201 37.7398 111.201H118.089C120.051 111.201 121.606 112.824 121.606 114.718V125.404C121.674 127.298 120.051 128.921 118.089 128.921ZM37.7398 112.486C36.5224 112.486 35.5755 113.501 35.5755 114.651V125.337C35.5755 126.554 36.59 127.501 37.7398 127.501H118.089C119.307 127.501 120.254 126.486 120.254 125.337V114.651C120.254 113.433 119.239 112.486 118.089 112.486H37.7398Z" fill="#112544"/>
<path d="M48.2232 119.993C48.2232 121.549 46.9381 122.834 45.3825 122.834C43.8269 122.834 42.5419 121.549 42.5419 119.993C42.5419 118.437 43.8269 117.152 45.3825 117.152C46.9381 117.152 48.2232 118.437 48.2232 119.993Z" fill="white"/>
<path d="M45.3825 123.511C43.4211 123.511 41.8655 121.955 41.8655 119.994C41.8655 118.032 43.4211 116.477 45.3825 116.477C47.3438 116.477 48.8994 118.032 48.8994 119.994C48.8994 121.955 47.3438 123.511 45.3825 123.511ZM45.3825 117.829C44.165 117.829 43.2182 118.776 43.2182 119.994C43.2182 121.211 44.165 122.158 45.3825 122.158C46.5999 122.158 47.5468 121.211 47.5468 119.994C47.5468 118.776 46.5999 117.829 45.3825 117.829Z" fill="#112544"/>
<path d="M59.1123 119.993C59.1123 121.549 57.8273 122.834 56.2717 122.834C54.7161 122.834 53.431 121.549 53.431 119.993C53.431 118.437 54.7161 117.152 56.2717 117.152C57.8273 117.152 59.1123 118.437 59.1123 119.993Z" fill="white"/>
<path d="M56.204 123.511C54.2426 123.511 52.687 121.955 52.687 119.994C52.687 118.032 54.2426 116.477 56.204 116.477C58.1654 116.477 59.721 118.032 59.721 119.994C59.7886 121.955 58.1654 123.511 56.204 123.511ZM56.204 117.829C54.9866 117.829 54.0397 118.776 54.0397 119.994C54.0397 121.211 54.9866 122.158 56.204 122.158C57.4214 122.158 58.3683 121.211 58.3683 119.994C58.4359 118.776 57.4214 117.829 56.204 117.829Z" fill="#112544"/>
<path d="M69.9338 119.993C69.9338 121.549 68.6488 122.834 67.0932 122.834C65.5376 122.834 64.2526 121.549 64.2526 119.993C64.2526 118.437 65.5376 117.152 67.0932 117.152C68.6488 117.152 69.9338 118.437 69.9338 119.993Z" fill="white"/>
<path d="M67.0931 123.511C65.1318 123.511 63.5762 121.955 63.5762 119.994C63.5762 118.032 65.1318 116.477 67.0931 116.477C69.0545 116.477 70.6101 118.032 70.6101 119.994C70.6101 121.955 69.0545 123.511 67.0931 123.511ZM67.0931 117.829C65.8757 117.829 64.9289 118.776 64.9289 119.994C64.9289 121.211 65.8757 122.158 67.0931 122.158C68.3106 122.158 69.2574 121.211 69.2574 119.994C69.2574 118.776 68.3106 117.829 67.0931 117.829Z" fill="#112544"/>
<path d="M80.7552 119.993C80.7552 121.549 79.4702 122.834 77.9146 122.834C76.359 122.834 75.074 121.549 75.074 119.993C75.074 118.437 76.359 117.152 77.9146 117.152C79.5378 117.152 80.7552 118.437 80.7552 119.993Z" fill="white"/>
<path d="M77.9147 123.511C75.9533 123.511 74.3977 121.955 74.3977 119.994C74.3977 118.032 75.9533 116.477 77.9147 116.477C79.8761 116.477 81.4317 118.032 81.4317 119.994C81.4317 121.955 79.8761 123.511 77.9147 123.511ZM77.9147 117.829C76.6973 117.829 75.7504 118.776 75.7504 119.994C75.7504 121.211 76.6973 122.158 77.9147 122.158C79.1321 122.158 80.079 121.211 80.079 119.994C80.079 118.776 79.1321 117.829 77.9147 117.829Z" fill="#112544"/>
<path d="M91.6443 119.993C91.6443 121.549 90.3592 122.834 88.8037 122.834C87.2481 122.834 85.963 121.549 85.963 119.993C85.963 118.437 87.2481 117.152 88.8037 117.152C90.3592 117.152 91.6443 118.437 91.6443 119.993Z" fill="white"/>
<path d="M88.8036 123.511C86.8422 123.511 85.2866 121.955 85.2866 119.994C85.2866 118.032 86.8422 116.477 88.8036 116.477C90.765 116.477 92.3206 118.032 92.3206 119.994C92.3206 121.955 90.765 123.511 88.8036 123.511ZM88.8036 117.829C87.5862 117.829 86.6393 118.776 86.6393 119.994C86.6393 121.211 87.5862 122.158 88.8036 122.158C90.021 122.158 90.9679 121.211 90.9679 119.994C90.9679 118.776 90.021 117.829 88.8036 117.829Z" fill="#112544"/>
<path d="M102.466 119.993C102.466 121.549 101.181 122.834 99.6251 122.834C98.0695 122.834 96.7844 121.549 96.7844 119.993C96.7844 118.437 98.0695 117.152 99.6251 117.152C101.248 117.152 102.466 118.437 102.466 119.993Z" fill="white"/>
<path d="M99.6251 123.511C97.6637 123.511 96.1082 121.955 96.1082 119.994C96.1082 118.032 97.6637 116.477 99.6251 116.477C101.587 116.477 103.142 118.032 103.142 119.994C103.142 121.955 101.587 123.511 99.6251 123.511ZM99.6251 117.829C98.4077 117.829 97.4608 118.776 97.4608 119.994C97.4608 121.211 98.4077 122.158 99.6251 122.158C100.843 122.158 101.789 121.211 101.789 119.994C101.789 118.776 100.843 117.829 99.6251 117.829Z" fill="#112544"/>
<path d="M113.355 119.993C113.355 121.549 112.07 122.834 110.514 122.834C108.959 122.834 107.674 121.549 107.674 119.993C107.674 118.437 108.959 117.152 110.514 117.152C112.07 117.152 113.355 118.437 113.355 119.993Z" fill="white"/>
<path d="M110.514 123.51C108.553 123.51 106.997 121.954 106.997 119.993C106.997 118.031 108.553 116.476 110.514 116.476C112.476 116.476 114.031 118.031 114.031 119.993C114.031 121.954 112.476 123.51 110.514 123.51ZM110.514 117.828C109.297 117.828 108.35 118.775 108.35 119.993C108.35 121.21 109.297 122.157 110.514 122.157C111.732 122.157 112.679 121.21 112.679 119.993C112.679 118.775 111.664 117.828 110.514 117.828Z" fill="#112544"/>
<path d="M94.1469 155.433H61.7501C59.7887 155.433 58.2332 153.81 58.2332 151.916V141.23C58.2332 139.268 59.8564 137.713 61.7501 137.713H94.1469C96.1083 137.713 97.6639 139.336 97.6639 141.23V151.916C97.6639 153.81 96.1083 155.433 94.1469 155.433ZM61.7501 138.998C60.5327 138.998 59.5858 140.012 59.5858 141.162V151.848C59.5858 153.066 60.6004 154.013 61.7501 154.013H94.1469C95.3643 154.013 96.3112 152.998 96.3112 151.848V141.162C96.3112 139.945 95.2967 138.998 94.1469 138.998H61.7501Z" fill="#112544"/>
<path d="M95.9729 92.3302C83.393 103.287 63.9819 100.582 54.8513 86.5137C59.0446 85.2963 63.6438 84.8228 68.784 85.161C68.9192 85.161 69.0545 85.161 69.1221 85.161C75.6827 85.4315 81.2287 86.6489 85.8278 88.2045C89.8182 89.1514 93.1323 90.5717 95.9729 92.3302Z" fill="#8D95FF"/>
<path d="M85.6926 65.6152C85.625 65.5476 85.6926 65.4123 85.7603 65.3447L85.8279 65.277C85.8955 65.2094 86.0308 65.277 86.0984 65.3447C86.1661 65.4123 86.1661 65.4799 86.1661 65.4799C86.0984 65.6828 85.7603 65.8181 85.6926 65.6152ZM82.1757 66.3592C81.9728 66.3592 81.8375 66.3592 81.6346 66.3592C81.4993 66.3592 81.4317 66.2239 81.4993 66.0886C81.5669 66.021 81.6346 65.9534 81.7022 65.9534C81.9051 65.9534 82.0404 65.9534 82.2433 65.9534C82.4462 66.021 82.4462 66.3592 82.1757 66.3592Z" fill="#FF987A"/>
<path d="M82.5137 66.4263C82.3108 66.4263 82.2432 66.4263 82.1756 66.4263C82.0403 66.4263 81.9727 66.3587 81.9727 66.2234C81.9727 66.0881 82.0403 66.0205 82.1756 66.0205C82.4461 66.0205 82.7843 66.0205 83.0548 66.0205C83.3253 66.0205 83.3253 66.4263 83.0548 66.4263C82.8519 66.3587 82.7166 66.4263 82.5137 66.4263Z" fill="#FF987A"/>
<path d="M83.1901 66.3592C82.9195 66.3592 82.9195 65.9534 83.1901 65.9534C83.3254 65.9534 83.4606 65.9534 83.6635 65.8857C83.7988 65.8857 83.8664 65.9534 83.8664 66.0886C83.8664 66.2239 83.7988 66.2916 83.6635 66.2916C83.4606 66.3592 83.3254 66.3592 83.1901 66.3592Z" fill="#FF987A"/>
<path d="M69.4604 87.2582C70.272 88.3403 71.4218 89.693 72.8421 90.8428C76.9678 94.0892 83.0549 92.1278 84.4076 87.0553L86.0308 81.1711C86.0308 81.1711 90.9681 82.118 92.3884 77.3836C92.7942 76.0309 92.5913 73.7313 92.0503 71.1612C91.8473 70.2143 91.6444 69.1322 91.3739 68.1177C90.7652 65.7505 90.0212 63.3157 89.2773 61.1514C87.9246 61.8953 85.8955 62.3011 82.9196 61.963C82.9196 61.963 81.2964 65.8181 75.8857 63.5862C75.8857 63.5862 78.9292 69.1322 73.8566 71.0936C72.9774 71.4318 71.8953 71.2965 70.8807 70.7554C71.2189 72.311 71.8276 72.9197 72.9774 74.0695L69.0546 83.9441C68.5812 85.0262 68.7164 86.3113 69.4604 87.2582Z" fill="#FCBBA4"/>
<path d="M72.4362 91.4511C71.2188 90.4366 70.0014 89.2192 68.9192 87.7312C68.3782 86.9873 68.1076 86.108 68.1076 85.2288C68.1076 84.823 68.4458 84.5524 68.784 84.5524C69.1898 84.5524 69.4603 84.8906 69.4603 85.2288C69.4603 85.8375 69.6632 86.4462 70.0014 86.9196C70.6777 87.8665 71.8275 89.2868 73.3155 90.4366C76.9001 93.2772 82.1079 91.7217 83.6635 87.596C83.7988 87.2578 84.2046 87.0549 84.5428 87.1902C84.8809 87.3254 85.0838 87.7312 84.9486 88.0694C83.0548 92.9391 76.7648 94.8328 72.4362 91.4511ZM91.0356 52.6291C92.3207 55.4021 93.4028 63.18 82.9195 61.895C82.9195 61.895 81.2963 65.7501 75.8856 63.5182C75.8856 63.5182 78.9291 69.0642 73.8565 71.0256C68.784 72.987 59.5181 58.9191 69.4603 56.8224C69.4603 56.8224 68.6487 53.6436 72.2333 54.5905C72.2333 54.5905 73.1126 47.8271 79.9436 51.4117C79.9436 51.4793 87.3834 44.6483 91.0356 52.6291Z" fill="#112544"/>
<path d="M90.5622 65.006C90.1564 63.6533 89.7506 62.3683 89.3448 61.1509C91.1709 60.1364 91.8472 58.3102 91.8472 56.5518C92.997 58.2426 95.0937 62.3683 90.5622 65.006ZM83.4606 68.523C83.5959 69.0641 84.0693 69.3346 84.4075 69.267C84.8133 69.1317 84.9485 68.6583 84.8133 68.1172C84.678 67.6438 84.2046 67.3056 83.8664 67.3732C83.4606 67.5085 83.3253 67.9819 83.4606 68.523ZM89.48 67.1703C89.6153 67.7114 90.0887 67.9819 90.4269 67.9143C90.8327 67.779 90.968 67.3056 90.8327 66.7645C90.6975 66.2911 90.224 65.9529 89.8858 66.0205C89.48 66.1558 89.3448 66.6292 89.48 67.1703ZM81.5668 65.8853C81.2287 66.0882 81.2963 66.3587 81.7697 66.4264C82.8519 66.5616 84.0693 66.2911 84.8809 65.5471C85.1514 65.2766 85.0162 65.006 84.678 64.9384C84.4075 64.8708 84.0017 65.006 83.7311 65.006C82.9872 65.2089 82.2432 65.4795 81.5668 65.8853Z" fill="#112544"/>
<path d="M87.654 64.1943C87.3158 64.3972 87.3834 64.6678 87.8569 64.7354C88.939 64.8707 90.1565 64.6001 90.9681 63.8562C91.2386 63.5856 91.1033 63.3151 90.7652 63.2475C90.4946 63.1798 90.0888 63.3151 89.8183 63.3151C89.0743 63.4504 88.3303 63.7885 87.654 64.1943Z" fill="#112544"/>
<path d="M87.0452 76.2338C86.707 76.0309 86.6394 75.6251 86.9099 75.2869C87.1128 74.9488 87.5186 74.8811 87.8568 75.1517C89.2095 76.0986 89.8858 75.2869 89.9535 75.1517C90.1564 74.8811 90.6298 74.8135 90.9003 75.0164C91.1709 75.2193 91.2385 75.6928 91.0356 75.9633C90.224 76.9778 88.6684 77.316 87.0452 76.2338ZM86.0307 81.1711C86.0307 81.1711 82.1755 80.6301 78.6585 77.7894C78.388 77.5865 78.0498 77.8571 78.1851 78.1276C78.9967 79.8861 81.0257 83.2002 85.1514 84.147L86.0307 81.1711Z" fill="#E2805D"/>
<path d="M68.9869 71.2288C69.6633 73.4608 71.6246 74.9487 73.4508 74.5429C75.2769 74.1371 76.1561 72.0404 75.4798 69.8085C74.8035 67.5766 72.8421 66.0886 71.0159 66.4944C69.2575 66.8326 68.3106 68.9969 68.9869 71.2288Z" fill="#FCBBA4"/>
<path d="M72.0304 71.5665L71.5569 70.7549C71.354 70.4167 71.4893 70.0109 71.7598 69.808C72.098 69.6051 72.5038 69.7404 72.7067 70.0109L73.1801 70.8225C73.383 71.1607 73.2478 71.5665 72.9772 71.7694C72.6391 71.9723 72.2333 71.8371 72.0304 71.5665ZM87.3833 71.7018C87.3157 71.3636 87.5862 71.0254 87.992 70.9578C88.2626 70.9578 88.5331 70.8902 88.8037 70.8225C88.736 70.2815 87.8568 68.9964 86.8423 67.8466C86.5717 67.5761 86.6394 67.1703 86.9099 66.8998C87.1804 66.6292 87.5862 66.6969 87.8568 66.9674C88.6684 67.8466 90.5621 70.0786 90.1563 71.3636C90.0887 71.6342 89.8182 72.04 89.2095 72.1752C88.8713 72.2429 88.5331 72.3105 88.1949 72.3105C87.7891 72.3105 87.451 72.1076 87.3833 71.7018Z" fill="#E2805D"/>
<path d="M77.9147 99.7028C62.3588 99.7028 49.7112 87.0552 49.7112 71.4993C49.7112 55.9435 62.3588 43.2959 77.9147 43.2959C93.4705 43.2959 106.118 55.9435 106.118 71.4993C106.186 87.0552 93.4705 99.7028 77.9147 99.7028ZM77.9147 44.6486C63.1028 44.6486 51.0639 56.6875 51.0639 71.4993C51.0639 86.3112 63.1028 98.3501 77.9147 98.3501C92.7265 98.3501 104.765 86.3112 104.765 71.4993C104.833 56.6875 92.7265 44.6486 77.9147 44.6486Z" fill="#112544"/>
<path d="M216.362 191.888C207.299 186.004 197.086 179.376 186.265 183.434C180.854 185.463 175.849 186.275 171.317 185.801C170.979 185.734 170.641 185.463 170.709 185.057C170.776 184.719 171.047 184.449 171.453 184.449C175.714 184.855 180.516 184.111 185.791 182.149C197.289 177.821 207.84 184.652 217.106 190.739C224.275 195.405 230.43 199.396 235.299 197.096C240.71 194.526 247.541 169.028 253.966 127.23C254.034 126.892 254.372 126.622 254.71 126.689C255.049 126.757 255.319 127.095 255.251 127.433C250.585 157.801 243.415 194.661 235.84 198.314C229.889 201.154 222.449 195.811 216.362 191.888Z" fill="#112544"/>
<path d="M183.424 111.066C186.535 137.511 167.53 149.279 167.53 149.279C172.332 158.883 171.859 178.97 170.912 192.565C170.303 200.546 169.559 206.227 169.559 206.227C160.564 202.439 153.191 203.589 147.037 208.797C139.732 187.627 137.636 168.487 138.041 154.013C138.312 144.612 139.732 137.24 141.491 132.506C149.742 110.66 169.762 86.1086 205.067 90.0314L183.424 111.066Z" fill="#66D3D8"/>
<path d="M170.912 192.632C170.303 200.613 169.559 206.294 169.559 206.294C160.564 202.507 153.191 203.656 147.037 208.864C139.732 187.695 137.636 168.554 138.041 154.081C138.515 154.013 138.988 154.013 139.462 154.148C141.694 154.757 142.505 157.327 142.979 159.559C144.805 168.757 145.549 178.091 145.211 187.424C145.143 189.656 145.008 192.023 145.819 194.12C146.631 196.217 148.66 198.043 150.892 197.84C154.477 197.434 155.762 192.7 158.805 190.806C160.902 189.521 163.607 189.724 165.974 190.535C167.665 191.076 169.221 191.888 170.912 192.632Z" fill="#47B6C3"/>
<path d="M147.037 209.541C146.834 209.541 146.631 209.473 146.496 209.27C146.225 209 146.293 208.526 146.563 208.324C152.921 202.913 160.428 201.966 169.018 205.28C169.762 199.193 173.752 163.212 166.921 149.549C166.786 149.211 166.853 148.873 167.192 148.67C167.395 148.535 185.791 136.767 182.748 111.133C182.68 110.795 182.95 110.457 183.356 110.389C183.762 110.322 184.033 110.592 184.1 110.998C186.941 135.076 171.453 147.385 168.409 149.549C175.646 165.173 170.438 204.671 170.235 206.43C170.235 206.633 170.1 206.836 169.897 206.903C169.694 207.039 169.491 207.039 169.288 206.971C160.834 203.386 153.665 204.198 147.442 209.406C147.307 209.473 147.172 209.541 147.037 209.541Z" fill="#112544"/>
<path d="M350.684 118.709C353.862 132.371 345.273 143.463 331.611 143.463C323.833 143.463 316.055 139.878 310.238 134.265C315.582 138.255 321.939 140.69 328.364 140.69C342.026 140.69 350.548 129.598 347.437 115.936C346.085 110.052 342.77 104.641 338.374 100.38C344.394 104.911 348.993 111.404 350.684 118.709Z" fill="#E1E5FF"/>
<path d="M331.611 144.139C317.678 144.139 303.745 132.777 300.499 118.844C297.253 104.641 306.18 93.2783 320.248 93.2783C334.181 93.2783 348.181 104.641 351.36 118.573C354.606 132.777 345.679 144.139 331.611 144.139ZM320.248 94.631C307.06 94.631 298.808 105.25 301.852 118.573C304.895 131.965 318.287 142.787 331.611 142.787C344.799 142.787 353.118 132.236 350.007 118.844C346.964 105.452 333.572 94.631 320.248 94.631Z" fill="#112544"/>
<path d="M342.635 118.709C344.732 127.907 338.983 135.414 329.785 135.414C320.586 135.414 311.388 127.974 309.291 118.709C307.195 109.51 312.944 102.003 322.142 102.003C331.34 102.003 340.471 109.443 342.635 118.709Z" fill="#66D3D8"/>
<path d="M342.635 118.709C344.732 127.907 338.983 135.414 329.785 135.414C323.562 135.414 317.34 132.033 313.349 126.96C329.311 142.787 351.157 126.622 336.819 108.496C339.592 111.269 341.756 114.854 342.635 118.709Z" fill="#47B6C3"/>
<path d="M322.413 122.564L318.896 118.303C318.084 117.356 318.152 116.139 318.963 115.598C319.775 115.057 321.06 115.327 321.872 116.274L323.901 118.709L329.176 114.313C329.92 113.704 331.205 113.907 332.017 114.786C332.828 115.665 332.896 116.883 332.152 117.559L325.456 123.24C324.577 123.849 323.157 123.443 322.413 122.564Z" fill="white"/>
<path d="M293.938 43.8366L279.397 25.1696C279.194 24.8991 279.194 24.4256 279.532 24.2227C279.803 24.0198 280.276 24.0198 280.479 24.358L295.02 43.025C295.223 43.2955 295.223 43.769 294.885 43.9719C294.615 44.1748 294.209 44.1072 293.938 43.8366ZM302.866 55.2668L299.281 50.6677C299.078 50.3971 299.078 49.9237 299.417 49.7208C299.687 49.5179 300.161 49.5179 300.364 49.8561L303.948 54.4552C304.151 54.7257 304.151 55.1992 303.813 55.4021C303.542 55.605 303.069 55.5373 302.866 55.2668ZM268.508 60.8128L266.411 60.3394C266.073 60.2717 265.802 59.8659 265.87 59.5278C265.938 59.1896 266.343 58.919 266.682 59.0543L268.778 59.5278C269.117 59.5954 269.387 60.0012 269.319 60.3394C269.252 60.6775 268.846 60.9481 268.508 60.8128ZM295.832 67.1704L274.392 62.1655C274.054 62.0978 273.783 61.692 273.919 61.3539C273.986 61.0157 274.392 60.7452 274.73 60.8804L296.17 65.8177C296.508 65.8854 296.779 66.2912 296.644 66.6293C296.576 67.0351 296.17 67.238 295.832 67.1704ZM317.002 28.0779C316.663 28.0102 316.393 27.6721 316.393 27.3339L316.799 24.2903C316.866 23.9522 317.204 23.6816 317.543 23.6816C317.881 23.7493 318.151 24.0874 318.151 24.4256L317.745 27.4691C317.745 27.875 317.407 28.1455 317.002 28.0779ZM313.755 53.373C313.417 53.3054 313.146 52.9672 313.146 52.6291L315.243 36.2616C315.311 35.9234 315.649 35.6529 315.987 35.6529C316.325 35.7205 316.596 36.0587 316.596 36.3969L314.499 52.7643C314.431 53.1701 314.093 53.4407 313.755 53.373Z" fill="#CCD2FF"/>
<path d="M67.0257 250.391C67.0257 256.816 70.475 262.092 69.731 268.652C69.0547 274.739 64.3879 281.232 58.3685 284.478C50.9963 288.401 42.8802 286.846 38.2135 282.585C37.9429 282.314 37.6048 282.044 37.3342 281.773C48.9673 286.71 63.5763 276.768 66.214 265.609C67.702 259.319 64.8614 254.178 65.6053 247.956C66.4169 240.854 71.8953 233.347 76.0886 227.733C74.9389 229.627 67.0257 242.545 67.0257 250.391Z" fill="#E1E5FF"/>
<path d="M37.7401 283.058C35.0347 280.556 31.653 278.324 31.1119 274.131C30.5032 269.87 32.7351 264.797 36.5227 261.416C40.9865 257.56 47.2765 255.937 49.9142 251.203C51.9433 247.618 50.9964 244.236 50.2524 233.55C49.035 218.603 49.9142 202.709 64.2527 194.525C73.5186 189.25 82.7168 192.361 85.2869 199.666C88.5334 208.796 81.4994 220.159 76.765 227.801C72.707 234.362 67.6344 242.546 67.6344 250.256C67.6344 256.546 71.0838 261.889 70.3398 268.585C69.5958 274.875 64.7938 281.638 58.639 284.885C51.3346 289.01 42.8126 287.658 37.7401 283.058ZM64.929 195.81C51.1993 203.656 50.3877 218.941 51.6051 233.55C52.4843 244.507 53.2959 248.159 51.1316 251.947C48.291 257.087 41.7305 258.778 37.4695 262.498C34.0202 265.474 31.9912 270.208 32.4646 273.996C32.938 277.58 36.1169 279.744 38.687 282.112C42.745 285.832 50.5229 287.928 58.0303 283.87C63.8469 280.759 68.3107 274.469 68.9871 268.585C69.7311 262.227 66.2817 256.884 66.2817 250.391C66.2817 242.343 71.4219 234.024 75.6152 227.26C80.0115 220.091 87.0454 208.931 84.0019 200.274C81.4318 192.699 72.3688 191.549 64.929 195.81Z" fill="#CCD2FF"/>
<path d="M42.5421 314.238C42.2715 314.238 42.0687 314.102 41.9334 313.899C41.7981 313.696 30.2327 291.986 50.0495 261.956C67.7697 235.173 66.2141 212.651 66.2141 212.448C66.2141 212.042 66.4846 211.772 66.8228 211.704C67.2286 211.704 67.4991 211.975 67.5667 212.313C67.5667 212.516 69.19 235.511 51.1993 262.7C31.7882 292.053 43.0155 313.02 43.1508 313.223C43.3537 313.696 43.0832 314.238 42.5421 314.238Z" fill="#CCD2FF"/>
<path d="M41.3248 272.981C38.6871 271.763 34.6967 272.845 33.0734 270.275C32.1942 268.787 32.3295 266.555 32.6 264.391C33.6821 254.246 34.5614 247.956 33.4792 242.545C29.6241 223.675 6.08738 239.028 14.0682 256.14C15.5562 259.319 17.7881 261.889 19.6142 264.797C21.4404 267.705 22.9283 271.155 22.793 275.213C22.5901 279.879 20.2906 285.02 20.5611 289.551C20.8316 293.744 23.6046 296.856 27.2569 297.058C31.7884 297.329 36.9286 293.203 39.9721 288.401C41.663 285.764 43.8273 282.923 44.2331 279.879C44.7065 276.836 43.5567 273.995 41.3248 272.981Z" fill="#CCD2FF"/>
<path d="M27.2568 297.465C23.4017 297.262 20.561 294.016 20.2228 289.619C19.9523 285.02 22.2519 279.88 22.4548 275.213C22.59 271.832 21.5755 268.585 19.3436 265.001C17.5175 262.092 15.3532 259.522 13.7976 256.276C12.5125 253.57 11.3628 249.377 12.7154 244.575C16.1648 232.671 30.8414 228.275 33.8173 242.478C34.9671 247.957 34.0202 254.247 32.9381 264.392C32.7352 266.15 32.5323 268.585 33.4115 270.006C34.2908 271.493 36.1169 271.696 37.943 271.899C39.1604 272.035 40.3778 272.17 41.46 272.643C43.8272 273.725 45.1122 276.701 44.5712 280.015C44.0977 283.194 41.9334 286.035 40.2426 288.673C37.5372 293.001 32.2617 297.736 27.2568 297.465ZM18.4644 237C16.1648 238.961 14.271 241.87 13.3918 244.778C12.0391 249.377 13.1889 253.435 14.4063 256.005C15.8942 259.184 18.0585 261.754 19.8847 264.662C22.1842 268.382 23.1987 271.764 23.0635 275.281C22.8606 279.88 20.561 285.223 20.8316 289.619C21.1021 293.677 23.7398 296.653 27.1892 296.789C31.8559 297.059 36.9285 292.595 39.6339 288.334C41.3247 285.697 43.4214 282.924 43.8948 279.948C44.3006 276.972 43.2185 274.266 41.1218 273.32C40.1749 272.846 38.9575 272.779 37.8077 272.643C35.8463 272.44 33.8173 272.237 32.7352 270.479C31.7883 268.923 31.9236 266.827 32.1941 264.392C33.2086 254.517 34.2231 248.092 33.0733 242.681C31.3825 234.092 24.5514 231.86 18.4644 237Z" fill="#CCD2FF"/>
<path d="M38.3488 296.314C38.0782 289.416 36.0492 283.464 32.194 278.527C21.5755 264.932 23.1987 247.415 23.2663 247.28C23.334 246.941 23.6721 246.671 24.0103 246.671C24.3485 246.739 24.619 247.009 24.619 247.415C24.619 247.618 22.9958 264.594 33.2762 277.715C37.2666 282.855 39.4309 289.078 39.7015 296.314C39.7015 296.72 39.4309 296.991 39.0251 296.991C38.6869 296.991 38.3488 296.72 38.3488 296.314ZM51.3345 314.237H35.5758C35.17 314.237 34.8994 313.967 34.8994 313.561C34.8994 313.155 35.17 312.885 35.5758 312.885H51.3345C51.7403 312.885 52.0109 313.155 52.0109 313.561C52.0109 313.967 51.6727 314.237 51.3345 314.237Z" fill="#CCD2FF"/>
<path d="M198.777 20.7738H193.028C192.622 20.7738 192.352 20.5033 192.352 20.0975C192.352 19.6917 192.622 19.4211 193.028 19.4211H197.898C195.733 10.2905 199.589 4.94741 207.366 9.14073C206.69 -5.26535 222.787 -1.13966 233.27 11.1021C233.811 8.53202 236.043 8.73493 238.478 9.74944H244.024C244.43 9.74944 244.701 10.02 244.701 10.4258C244.701 10.8316 244.43 11.1021 244.024 11.1021H238.343C237.193 11.1021 234.353 8.59966 234.555 12.8606C234.555 13.537 233.744 13.8075 233.338 13.3341C223.802 1.29517 207.164 -4.79191 208.854 10.3581C208.922 10.8992 208.313 11.305 207.84 11.0345C200.062 6.09719 197.086 11.1698 199.453 20.0298C199.521 20.368 199.183 20.7738 198.777 20.7738Z" fill="#CCD2FF"/>
</svg>
